<svg width="40" height="40" viewBox="0 0 40 40" fill="none" xmlns="http://www.w3.org/2000/svg">
<rect x="0.5" y="0.5" width="39" height="39" rx="19.5" stroke="black" stroke-opacity="0.25"/>
<path d="M14.7194 13.295C14.3261 12.9017 13.6884 12.9017 13.295 13.295C12.9017 13.6884 12.9017 14.3261 13.295 14.7194L18.5756 20L13.295 25.2806C12.9017 25.6739 12.9017 26.3116 13.295 26.705C13.6884 27.0983 14.3261 27.0983 14.7195 26.705L20 21.4245L25.2805 26.705C25.6739 27.0983 26.3116 27.0983 26.705 26.705C27.0983 26.3116 27.0983 25.6739 26.705 25.2805L21.4244 20L26.705 14.7195C27.0983 14.3261 27.0983 13.6884 26.705 13.295C26.3116 12.9017 25.6739 12.9017 25.2806 13.295L20 18.5756L14.7194 13.295Z" fill="black"/>
</svg>
